<?xml version="1.0" encoding="utf-8"?>
<!-- Generator: Adobe Illustrator 24.0.3, SVG Export Plug-In . SVG Version: 6.00 Build 0)  -->
<svg version="1.1" id="Layer_1" xmlns="http://www.w3.org/2000/svg" xmlns:xlink="http://www.w3.org/1999/xlink" x="0px" y="0px"
	 viewBox="0 0 74.9 62.5" style="enable-background:new 0 0 74.9 62.5;" xml:space="preserve">
<style type="text/css">
	.st0{fill:#FFFFFF;}
</style>
<path class="st0" d="M37.2,1.2c-16.5,0-30,13.4-30,30s13.4,30,30,30c16.5,0,30-13.4,30-30S53.8,1.2,37.2,1.2z M16.4,39.3
	c-0.2,0.1-0.5,0.1-0.7,0.1c-1.2,0-2.3-0.8-2.6-2c-2.1-8.2,0.1-16.7,5.8-22.9c1-1.1,2.7-1.2,3.8-0.1c1.1,1,1.2,2.7,0.1,3.8
	C18.4,23,16.7,29.6,18.3,36C18.7,37.4,17.8,38.9,16.4,39.3z M22.4,48.7c-0.4,0.2-0.9,0.4-1.3,0.4c-1,0-1.9-0.5-2.4-1.4
	c-0.7-1.3-0.3-3,1-3.7c4.6-2.6,4.4-6.6,3.7-10.8c-0.1-0.8-0.2-1.5-0.2-2.1c0-7.5,6.1-13.7,13.7-13.7c7.6,0,12.8,5.2,14.1,14.3
	c0.2,1.5-0.8,2.9-2.3,3.1c-1.5,0.2-2.9-0.8-3.1-2.3c-0.9-6.4-3.8-9.7-8.7-9.7c-4.5,0-8.2,3.7-8.2,8.2c0,0.2,0.1,0.8,0.2,1.2
	C29.4,35.8,30.8,44,22.4,48.7z M32.2,55.1c-0.5,0.5-1.2,0.7-1.8,0.7c-0.7,0-1.5-0.3-2-0.9c-1-1.1-0.9-2.8,0.2-3.8
	c5.4-4.8,7.5-12.2,5.7-19.2c-0.4-1.5,0.5-2.9,1.9-3.3c1.5-0.4,2.9,0.5,3.3,1.9C41.9,39.5,39.1,48.9,32.2,55.1z M50.8,42.6
	c-0.7,4.2-2.1,8.2-4.2,11.9c-0.5,0.9-1.4,1.4-2.4,1.4c-0.5,0-0.9-0.1-1.3-0.4c-1.3-0.7-1.8-2.4-1-3.7c1.8-3.1,3-6.5,3.5-10
	c0.1-0.7,0.2-1.3,0.2-2c0.1-1.5,1.5-2.6,3-2.5c1.5,0.1,2.6,1.5,2.5,3C51,41,50.9,41.8,50.8,42.6z M59.5,39.4
	C59.5,39.4,59.5,39.4,59.5,39.4c-1.5,0-2.7-1.2-2.7-2.7C56.7,21.5,49.1,12,36.9,12c-3,0-5.9,0.7-8.9,2.1c-1.4,0.7-3,0.1-3.6-1.2
	c-0.7-1.3-0.1-3,1.2-3.6c3.7-1.8,7.4-2.7,11.3-2.7c15.3,0,25.3,11.8,25.4,30.1C62.2,38.1,61,39.4,59.5,39.4z"/>
</svg>
