<svg xmlns="http://www.w3.org/2000/svg" viewBox="0 0 74.875 62.47">
  <defs>
    <style>
      .cls-1 {
        fill: #ed2127;
      }
    </style>
  </defs>
  <g id="Group_40" data-name="Group 40" transform="translate(0.1)">
    <path id="Path_106" data-name="Path 106" class="cls-1" d="M64.911,19.727A20.392,20.392,0,0,0,27.249,9.565H26.2a14.329,14.329,0,0,0-14.2,12.105A15.333,15.333,0,0,0-.1,36.466,15.506,15.506,0,0,0,15.144,51.71h1.943V46.927H15.293A10.462,10.462,0,0,1,15.443,26a7.276,7.276,0,0,1,1.793.149,11.615,11.615,0,0,1-.3-2.391,9.465,9.465,0,0,1,13.152-8.818,15.669,15.669,0,0,1,30.338,5.53,16.468,16.468,0,0,1-.3,2.69,12.013,12.013,0,0,1,4.035,22.119v5.231A16.6,16.6,0,0,0,74.775,34.971,17.632,17.632,0,0,0,64.911,19.727Z" transform="translate(0 0)"/>
    <path id="Path_107" data-name="Path 107" class="cls-1" d="M44.205,38.455H36.882v-13a5.53,5.53,0,1,0-11.059,0v13H18.5v-13a12.853,12.853,0,0,1,25.705,0Z" transform="translate(9.198 6.231)"/>
    <path id="Path_108" data-name="Path 108" class="cls-1" d="M32.885,23.8A37.652,37.652,0,0,0,15.1,27.985V46.516A39.038,39.038,0,0,0,32.885,50.7a37.652,37.652,0,0,0,17.785-4.185V27.985A37.221,37.221,0,0,0,32.885,23.8ZM35.276,38v4.185a2.391,2.391,0,0,1-4.782,0V38a3.969,3.969,0,0,1-1.644-3.288,4.035,4.035,0,1,1,8.07,0A3.969,3.969,0,0,1,35.276,38Z" transform="translate(7.516 11.769)"/>
  </g>
</svg>
