<svg xmlns="http://www.w3.org/2000/svg" viewBox="0 0 70 61.087">
  <defs>
    <style>
      .cls-1 {
        fill: #ed2127;
      }
    </style>
  </defs>
  <g id="Group_41" data-name="Group 41" transform="translate(0.04)">
    <path id="Path_111" data-name="Path 111" class="cls-1" d="M65.625,52.622c-1.945-2.059-4-4.118-5.949-6.063-.8-.915-1.716-1.716-2.517-2.631L54.872,41.64l-1.83-1.83-.686-.686.572-.686a23.333,23.333,0,0,0,4.69-12.011c-1.373-.458-3.2-1.03-4.919-1.716v.114A19.043,19.043,0,0,1,33.48,42.9h-.8a19,19,0,0,1-17.5-15.672,15.1,15.1,0,0,1-.229-3.2,18.95,18.95,0,0,1,18.99-18.99A18.883,18.883,0,0,1,50.3,14.414c1.258.458,2.631.915,4,1.373h.114c.8.229,1.6.572,2.4.8A24.512,24.512,0,0,0,33.709,0a22.355,22.355,0,0,0-8.236,1.487A23.787,23.787,0,0,0,12.545,12.812,23.3,23.3,0,0,0,9.8,22.421v1.6A23.747,23.747,0,0,0,29.7,47.588l1.6.229a3.892,3.892,0,0,1,1.144.114,24.88,24.88,0,0,0,2.974-.114h.343a24.225,24.225,0,0,0,9.38-2.86l.8-.458.572.686c2.288,2.974,4.69,5.949,7.092,9.037,1.373,1.716,2.745,3.546,4.118,5.262a3.951,3.951,0,0,0,3.089,1.6h.229a3.633,3.633,0,0,0,2.288-.915c.572-.458,1.03-.915,1.6-1.373l.343-.229a3.8,3.8,0,0,0,1.373-2.86A3.359,3.359,0,0,0,65.625,52.622Z" transform="translate(1.416)"/>
    <path id="Path_112" data-name="Path 112" class="cls-1" d="M69.443,21.241a3.9,3.9,0,0,0-3.432-2.059,1.451,1.451,0,0,0-.686.114,4.252,4.252,0,0,0-2.173,1.03l-1.144-.458c-1.487-.572-4.347-1.487-7.321-2.4-1.716-.572-3.546-1.144-5.148-1.716-1.716-.572-3.2-1.03-4.233-1.487a4.378,4.378,0,0,0-2.974-3.317,2.878,2.878,0,0,0-1.716-.114,4.028,4.028,0,0,0-2.517,1.6,4.049,4.049,0,0,0-.458,4.347c-.458.572-.572.915-.8,1.144-.229.343-.343.572-.8,1.373l-2.059,3.089c-1.258,1.945-2.745,3.889-4.118,5.834a3.261,3.261,0,0,0-1.83.229L19.11,20.326a12.558,12.558,0,0,0-.229,2.974A12.433,12.433,0,0,0,19,25.359l6.521,5.949a6.523,6.523,0,0,0-.114,1.487,3.876,3.876,0,0,0,3.089,3.432,3.167,3.167,0,0,0,1.03.114,1.451,1.451,0,0,0,.686-.114,4.573,4.573,0,0,0,2.517-1.6,3.646,3.646,0,0,0,.343-4.233c1.258-1.83,2.517-3.661,3.889-5.605l.915-1.258c.8-1.144,1.258-1.83,1.6-2.4a25.39,25.39,0,0,1,1.487-2.173,3.757,3.757,0,0,0,3.2-1.144l1.03.343c1.373.458,3.661,1.258,6.292,2.059l1.03.343c3.661,1.258,7.436,2.517,9.495,3.2v.229a4.224,4.224,0,0,0,2.745,2.974,5.9,5.9,0,0,0,1.258.229h0a1.451,1.451,0,0,0,.686-.114A3.683,3.683,0,0,0,68.986,25.7,3.791,3.791,0,0,0,69.443,21.241ZM29.863,34.4h-.458a2.081,2.081,0,0,1-2.059-1.716,2.188,2.188,0,0,1,1.83-2.631,2.125,2.125,0,0,1,2.517,1.716A2.256,2.256,0,0,1,29.863,34.4ZM41.646,17.008H41.3a2.309,2.309,0,0,1-2.174-1.83,2.049,2.049,0,0,1,1.716-2.517H41.3a2.1,2.1,0,0,1,2.059,1.83A1.982,1.982,0,0,1,41.646,17.008ZM66.24,25.359h-.458a2,2,0,0,1-2.059-1.83,2.124,2.124,0,0,1,1.83-2.517h.458a2,2,0,0,1,2.059,1.83A2.2,2.2,0,0,1,66.24,25.359ZM6.3,5.683a3.936,3.936,0,0,0-2.974-.572A4.027,4.027,0,0,0,1.15,6.255,4.008,4.008,0,0,0,.692,11.4,3.937,3.937,0,0,0,4.81,13.119c.229,0,.343-.114.572-.114l4,3.546a22.388,22.388,0,0,1,1.373-3.889L8.013,10.144A3.805,3.805,0,0,0,6.3,5.683ZM4.582,11.288H4.01a2,2,0,0,1-2.059-1.83A2.049,2.049,0,0,1,3.666,6.941h.458A2.081,2.081,0,0,1,6.183,8.657,2.139,2.139,0,0,1,4.582,11.288Z" transform="translate(0 0.723)"/>
  </g>
</svg>
