<?xml version="1.0" encoding="utf-8"?>
<!-- Generator: Adobe Illustrator 24.0.3, SVG Export Plug-In . SVG Version: 6.00 Build 0)  -->
<svg version="1.1" id="Layer_1" xmlns="http://www.w3.org/2000/svg" xmlns:xlink="http://www.w3.org/1999/xlink" x="0px" y="0px"
	 viewBox="0 0 74.9 62.5" style="enable-background:new 0 0 74.9 62.5;" xml:space="preserve">
<style type="text/css">
	.st0{fill:#FFFFFF;}
</style>
<path class="st0" d="M14.1,20.4c-0.3-0.1-0.6-0.4-0.7-0.7c-0.1-0.3-0.1-0.7,0.1-1l2.2-3.5c0.4-0.7,1.2-1.1,2-1.1l23.7-0.9
	c-0.7,0.6-1.3,1.1-2,1.7c0,0-8,6.6-9.4,7.8c-1.1,0.9-2.1,1.7-3.1,2.6L14.1,20.4z"/>
<path class="st0" d="M74.2,4.1c-0.8-1-2-1.7-3.4-2.1c-0.5,1.9-2.7,3.8-4,5c0,0-1.2,0.8-2.3,0.2c-1.1-0.7-0.6-1.2-0.6-1.2
	c2.8-2.3,3.8-3.8,3.6-4.4c-2.5-0.1-7.3,0.3-12,3.9c-3.4,2.6-9,7.4-14,11.5c0,0-8,6.6-9.4,7.8c-6.2,5.1-11.3,9.7-15.2,13.7l-11.2-2
	c-0.7-0.1-1.5,0-2,0.5l-2.6,1.9c-0.2,0.2-0.3,0.4-0.3,0.7c0,0.3,0.1,0.5,0.4,0.7l8.9,6.5l0,0c-1.3,1.5-1.2,3.8,0.2,4.7
	c1.4,0.9,3.1,0.8,6.5-1c5.1-2.7,12.9-6.8,20.7-11.9L40.6,59c0,0.4,0.3,0.7,0.7,0.9C41.5,60,41.8,60,42,60c0.1,0,0.2-0.1,0.3-0.2
	l4-2.6c0.6-0.4,1-1,1.1-1.6l5-29.4c1.6-1.3,8.1-6.6,9.2-7.5c8.2-6.6,12.8-10.5,13-13.2C74.7,5,74.6,4.5,74.2,4.1z"/>
</svg>
