<svg id="Group_39" data-name="Group 39" xmlns="http://www.w3.org/2000/svg" viewBox="0 0 56.795 72.7">
  <defs>
    <style>
      .cls-1 {
        fill: #ed2127;
      }
    </style>
  </defs>
  <path id="Path_104" data-name="Path 104" class="cls-1" d="M28.4,72.7l-1.106-.553A58.668,58.668,0,0,1,8.99,59.054C3.043,52.416,0,44.855,0,36.511V12.124l2.305-.277A46.275,46.275,0,0,0,26.738,1.337L28.4,0l1.66,1.337A46.275,46.275,0,0,0,54.49,11.848l2.305.277V36.511c0,8.344-3.043,15.951-8.99,22.589-4.518,5.071-10.7,9.451-18.3,13.092ZM5.209,16.688V36.465C5.209,51.909,17.564,61.5,28.4,66.937,39.231,61.5,51.586,51.909,51.586,36.465V16.688a51.326,51.326,0,0,1-23.188-10A51.542,51.542,0,0,1,5.209,16.688Z"/>
  <path id="Path_105" data-name="Path 105" class="cls-1" d="M37.938,75.654V48.823H17.7C17.792,62.192,28.487,70.721,37.938,75.654Zm0-53.154h0V48.823H58.176V31.305A51.509,51.509,0,0,1,37.938,22.5Z" transform="translate(-9.54 -12.127)"/>
</svg>
