<svg id="Group_31" data-name="Group 31" xmlns="http://www.w3.org/2000/svg" width="63.117" height="49.024" viewBox="0 0 63.117 49.024">
  <path id="Path_48" data-name="Path 48" d="M1196.3,98.56v3.595a24.846,24.846,0,0,0-11.963,8.771,20.927,20.927,0,0,0-4.331,12.439,3.779,3.779,0,0,0,.441,2.057.815.815,0,0,0,.661.438,2.288,2.288,0,0,0,1.1-.514,10.355,10.355,0,0,1,13.358,1.726,11.4,11.4,0,0,1,3.229,8.109,11.949,11.949,0,0,1-3.707,8.661,12.183,12.183,0,0,1-8.99,3.742,13.759,13.759,0,0,1-10.642-5.062q-4.478-5.065-4.477-13.578a28.216,28.216,0,0,1,6.092-17.761Q1183.161,103.331,1196.3,98.56Zm35.3,0v3.595a24.85,24.85,0,0,0-11.963,8.771,20.927,20.927,0,0,0-4.33,12.439,3.779,3.779,0,0,0,.44,2.057.816.816,0,0,0,.661.438,2.287,2.287,0,0,0,1.1-.514,10.353,10.353,0,0,1,13.357,1.726,11.4,11.4,0,0,1,3.23,8.109,11.953,11.953,0,0,1-3.706,8.661,12.187,12.187,0,0,1-8.991,3.742,13.759,13.759,0,0,1-10.641-5.062q-4.477-5.065-4.478-13.578a28.218,28.218,0,0,1,6.092-17.761Q1218.464,103.331,1231.6,98.56Z" transform="translate(-1170.98 -98.56)" fill="#fff"/>
</svg>
