<?xml version="1.0" encoding="utf-8"?>
<!-- Generator: Adobe Illustrator 24.0.3, SVG Export Plug-In . SVG Version: 6.00 Build 0)  -->
<svg version="1.1" id="Layer_1" xmlns="http://www.w3.org/2000/svg" xmlns:xlink="http://www.w3.org/1999/xlink" x="0px" y="0px"
	 viewBox="0 0 74.9 62.5" style="enable-background:new 0 0 74.9 62.5;" xml:space="preserve">
<style type="text/css">
	.st0{fill:#FFFFFF;}
</style>
<g>
	<path class="st0" d="M73.9,28.2C68.8,22.3,54.4,7.6,37.5,7.6C20.5,7.6,6.1,22.3,1,28.2c-1.1,1.3-1.1,3.5,0,4.7
		c5.1,5.9,19.5,20.5,36.4,20.5c17,0,31.4-14.7,36.4-20.5C75,31.6,75,29.5,73.9,28.2z M37.5,46.8c-9,0-16.2-7.3-16.2-16.2
		c0-9,7.3-16.2,16.2-16.2s16.2,7.3,16.2,16.2C53.7,39.5,46.5,46.8,37.5,46.8z"/>
	<path class="st0" d="M37.5,20.4c-5.6,0-10.1,4.5-10.1,10.1c0,5.6,4.5,10.1,10.1,10.1c5.6,0,10.1-4.5,10.1-10.1
		C47.6,25,43.1,20.4,37.5,20.4z M40.6,30.5c-1.7,0-3.1-1.4-3.1-3.1c0-1.7,1.4-3.1,3.1-3.1c1.7,0,3.1,1.4,3.1,3.1
		C43.6,29.2,42.3,30.5,40.6,30.5z"/>
</g>
</svg>
