<svg xmlns="http://www.w3.org/2000/svg" viewBox="0 0 67.965 68.025">
  <defs>
    <style>
      .cls-1 {
        fill: #ed2127;
      }
    </style>
  </defs>
  <path id="Path_121" data-name="Path 121" class="cls-1" d="M42.248,55.367A30.214,30.214,0,0,1,38.727,56.7L37.27,61.074a3.043,3.043,0,0,1-.486.85,2.593,2.593,0,0,1-2.064.971l-1.214.121a13.2,13.2,0,0,1-2.186.121H29.742l-1.457-.121A2.56,2.56,0,0,1,25.978,61.2L24.521,56.7a24.63,24.63,0,0,1-5.828-2.428L14.565,56.46c-.121,0-.121.121-.243.121a3.545,3.545,0,0,1-1.093.243,2.308,2.308,0,0,1-1.578-.607l-1.214-1.093c-.729-.729-1.7-1.7-2.428-2.55L7.037,51.6a2.743,2.743,0,0,1-.243-3.157l2.064-4.007A33.572,33.572,0,0,1,6.43,38.733L2.059,37.4A2.587,2.587,0,0,1,.237,34.969L.116,33.633a19.481,19.481,0,0,1,0-3.764l.121-1.336a2.586,2.586,0,0,1,.486-1.457l.243-.243a2.178,2.178,0,0,1,.85-.607c.121,0,.121-.121.243-.121l4.493-1.457A24.631,24.631,0,0,1,8.98,18.82L6.916,14.692A2.565,2.565,0,0,1,7.158,11.9a5.368,5.368,0,0,1,.971-1.093A27.735,27.735,0,0,1,10.8,8.135l1.093-.971a1.59,1.59,0,0,1,1.457-.729,4.314,4.314,0,0,1,1.214.243l4.128,2.064A33.572,33.572,0,0,1,24.4,6.314l1.336-4.493A7.159,7.159,0,0,1,26.221.85a2.124,2.124,0,0,1,1.7-.85h5.464l1.457.121A2.728,2.728,0,0,1,37.27,2.186l1.336,4.25a29.536,29.536,0,0,1,5.707,2.307l4.25-2.064a2,2,0,0,1,1.214-.243,2.9,2.9,0,0,1,1.7.607l1.093.971a27.607,27.607,0,0,1,2.671,2.671,13.314,13.314,0,0,1,.971,1.214,2.884,2.884,0,0,1,.364,2.793L54.39,18.82a33.572,33.572,0,0,1,2.428,5.707l4.493,1.457a2.592,2.592,0,0,1,.971.607l.364.364a2.333,2.333,0,0,1,.486,1.457l.121,1.336a19.448,19.448,0,0,1,0,3.764l-.121,1.457a2.61,2.61,0,0,1-1.7,2.307l-4.614,1.457c-.364,1.214-.85,2.428-1.336,3.643l-5.342-4.614a19.694,19.694,0,0,0,.971-5.95A19.427,19.427,0,1,0,31.685,51.239a19.092,19.092,0,0,0,5.95-.971ZM65.925,65.931a7.109,7.109,0,0,1-10.078,0L36.42,43.589a8.941,8.941,0,0,1-5.95,2.55h0c-2.55,0-5.1-1.336-7.528-3.764a13.707,13.707,0,0,1-2.914-13.6c.121-.243.243-.486.486-.486h.121a.631.631,0,0,1,.486.243l6.192,6.192a2.757,2.757,0,0,0,1.943.729,3.04,3.04,0,0,0,2.186-.971l2.914-2.914a2.9,2.9,0,0,0,.121-4.128l-6.192-6.192a1.3,1.3,0,0,1-.243-.729.522.522,0,0,1,.486-.486,12.428,12.428,0,0,1,4.25-.607,13.679,13.679,0,0,1,9.349,3.521c4.614,4.614,4.978,9.228,1.214,13.478L65.682,55.853A6.906,6.906,0,0,1,65.925,65.931ZM63.74,60.71A3.035,3.035,0,1,0,60.7,63.745,3.006,3.006,0,0,0,63.74,60.71Z" transform="translate(-0.025)"/>
</svg>
