<?xml version="1.0" encoding="utf-8"?>
<!-- Generator: Adobe Illustrator 24.0.3, SVG Export Plug-In . SVG Version: 6.00 Build 0)  -->
<svg version="1.1" id="Layer_1" xmlns="http://www.w3.org/2000/svg" xmlns:xlink="http://www.w3.org/1999/xlink" x="0px" y="0px"
	 viewBox="0 0 74.9 62.5" style="enable-background:new 0 0 74.9 62.5;" xml:space="preserve">
<style type="text/css">
	.st0{fill:#FFFFFF;}
</style>
<g>
	<path class="st0" d="M19.7,23.3H4.2v9.9C9,34.4,30,39.6,42,40.9c0-1.4,0.1-3.5,1.2-5.1c0.3-0.5,0.8-0.9,1.2-1.3
		c-0.5-0.4-1.1-0.9-1.7-1.3c0,0-0.1,0.1-0.1,0.1l-5.1,2.5c-0.2,0.1-0.4,0.1-0.6,0.1c-0.5,0-0.9-0.3-1.1-0.7
		c-0.3-0.6-0.1-1.4,0.6-1.7l4.3-2.2c-0.6-0.6-1.3-1.3-1.9-1.9c0,0-0.1,0.1-0.1,0.1l-6.3,2.5c-0.2,0.1-0.3,0.1-0.5,0.1
		c-0.5,0-1-0.3-1.2-0.8c-0.3-0.6,0.1-1.4,0.7-1.6l5.7-2.3c-0.7-0.8-1.3-1.7-1.9-2.6L30,27c-0.2,0.1-0.3,0.1-0.5,0.1
		c-0.5,0-1-0.3-1.2-0.8c-0.3-0.6,0.1-1.4,0.7-1.6l5-2c-0.7-1.2-1.4-2.5-2-3.8l-4.6,1.8c-0.2,0.1-0.3,0.1-0.5,0.1
		c-0.5,0-1-0.3-1.2-0.8c-0.3-0.6,0.1-1.4,0.7-1.6l4.6-1.8c-0.8-2.3-1.4-4.7-1.6-7.2v-5c0-0.5-0.2-0.9-0.6-1.1C28.5,3,28,3,27.6,3.2
		l-2.8,1.7c-0.3,0.2-0.6,0.5-0.9,0.7l1.3,11.5c0.2,1.6-0.3,3.1-1.4,4.3C22.8,22.6,21.2,23.3,19.7,23.3z"/>
	<path class="st0" d="M2.9,20.8h16.8c0.9,0,1.7-0.4,2.2-1c0.6-0.6,0.8-1.5,0.7-2.3l-0.9-7.7c-8.9,1.8-16.1,0.9-16.2,0.9
		c-0.3,0-0.6,0-0.8,0.2c-0.1,0.1-3.6,2.3-3.1,6.3C1.9,18.6,2.4,19.8,2.9,20.8z"/>
	<path class="st0" d="M44.4,43.1c-0.2,0.3-0.6,0.4-0.9,0.4c0,0-0.1,0-0.1,0c-12.1-1-34.7-6.6-39.8-7.9c-0.8,1.7-1.9,4.4-1.9,6.6
		c0,1.6,0.6,3.2,1.2,4.5l2.9,0.6c0,0,12.3,1.9,21.2,1.2c4.9-0.3,8.2,0.4,11.7,1.1c3.1,0.7,6.4,1.4,11.2,1.4c9.9,0,20.9-4.9,21-5
		l1.4-0.8c-0.8-2.8-3.1-6.3-8.4-6.9c-3-0.3-5-0.1-6.9,0c-2.6,0.2-4.6,0.4-8-1.2c-0.7-0.3-1.4-0.7-2.2-1.2c-0.6,0.2-1.1,0.5-1.5,1.1
		c-1.2,1.8-0.7,4.8-0.7,4.8C44.8,42.5,44.7,42.9,44.4,43.1z"/>
	<path class="st0" d="M73.8,50.8l-0.9-2.8l-0.9,0.5c-0.6,0.3-11.8,5.2-22.2,5.2c-0.1,0-0.2,0-0.3,0c-4.9,0-8.3-0.7-11.5-1.4
		c-3.3-0.7-6.4-1.4-11-1.1C17.9,51.8,5.8,50,5.3,49.9l-3.3-0.7c-0.2,0.2-0.3,0.5-0.3,0.7v7.6c0,0.7,0.6,1.3,1.3,1.3h3.8
		c0.5,0,0.9-0.3,1.1-0.7L8,57.8l0.1,0.3c0.2,0.4,0.7,0.7,1.1,0.7h2.5c0.5,0,0.9-0.3,1.1-0.7l0.1-0.3l0.1,0.3
		c0.2,0.4,0.7,0.7,1.1,0.7h2.5c0.5,0,0.9-0.3,1.1-0.7l0.1-0.3l0.1,0.3c0.2,0.4,0.7,0.7,1.1,0.7h3.8c0.5,0,1-0.3,1.2-0.9l1-3
		c2.1-0.2,8-0.8,11.7,0.9v1.8c0,0.7,0.6,1.3,1.3,1.3h2.5c0.5,0,0.9-0.3,1.1-0.7l0.1-0.3l0.1,0.3c0.2,0.4,0.7,0.7,1.1,0.7H46
		c0.3,0,0.7-0.1,0.9-0.4l0.4-0.4l0.4,0.4c0.2,0.2,0.6,0.4,0.9,0.4H51c0.3,0,0.7-0.1,0.9-0.4l0.4-0.4l0.4,0.4
		c0.2,0.2,0.6,0.4,0.9,0.4h2.5c0.3,0,0.7-0.1,0.9-0.4l0.4-0.4l0.4,0.4c0.2,0.2,0.6,0.4,0.9,0.4c0.1,0,0.3,0,0.4-0.1l3.8-1.3
		c0.4-0.1,0.7-0.5,0.8-0.9l0.2-0.6l0.8,0.2c0.3,0.1,0.6,0.1,0.9-0.1l2.5-1.3c0.3-0.1,0.5-0.4,0.6-0.7l0.2-0.7l0.7,0.2
		c0.3,0.1,0.7,0.1,1-0.1l2.5-1.3C73.7,52,74,51.4,73.8,50.8z"/>
</g>
</svg>
