<svg xmlns="http://www.w3.org/2000/svg" viewBox="0 0 62 62">
  <defs>
    <style>
      .cls-1 {
        fill: #fff;
      }
    </style>
  </defs>
  <path id="Path_109" data-name="Path 109" class="cls-1" d="M21.7,23.25l1.55,6.458v2.583L31,37.458l7.75-5.167V29.708L40.3,23.25a2.6,2.6,0,0,0,1.808-.517c1.421-1.292,2.325-4.521,1.421-6.2-.646-1.292-.9-1.033-.9-1.033V9.558c0-3.617-1.55-6.587-4.779-6.587C36.813.646,34.229,0,31,0,24.025,0,19.375,3.875,19.375,9.042V15.5s-.258-.258-.9.9c-.9,1.679,0,4.908,1.421,6.2A2.345,2.345,0,0,0,21.7,23.25ZM56.833,40.688c-1.55-1.162-16.792-5.812-16.792-5.812L33.583,54.9V45.854l-2.067-3.229,2.067-1.937L31,38.1l-2.583,2.583,2.067,1.938-2.067,3.229V54.9L21.958,34.875S6.717,39.525,5.167,40.688C2.971,42.367,0,55.542,0,62H62C62,55.542,59.029,42.367,56.833,40.688Z"/>
</svg>
